<svg width="36" height="23" viewBox="0 0 36 23" fill="none" xmlns="http://www.w3.org/2000/svg">
<path d="M24.1966 22.0783C28.5369 12.7058 26.0165 3.76046 24.1795 0.402761L23.103 0.992281C24.8032 4.08513 27.2297 12.6204 23.0859 21.5571L24.1966 22.0783Z" fill="black"/>
<path d="M11.1077 0.444569C6.76742 9.81709 9.28784 18.7624 11.1247 22.1116L12.2013 21.5221C10.5011 18.4292 8.07462 9.89398 12.2183 0.957197L11.1077 0.444569Z" fill="black"/>
<path d="M30.2885 19.3523C18.9082 11.885 8.45063 16.2423 4.43506 19.3864L5.28944 20.48C8.98889 17.5837 18.7886 13.4656 29.5281 20.5142L30.2885 19.3523Z" fill="black"/>
<path d="M4.45215 3.38397C15.8495 11.6629 26.3413 6.82711 30.3654 3.3498L29.4598 2.29891C25.7603 5.50283 15.9948 10.0396 5.27235 2.26474L4.45215 3.38397Z" fill="black"/>
<path d="M18.283 22.0677H16.8989V0.699717H18.283V22.0677Z" fill="black"/>
<path d="M11.3803 21.3765C5.86103 21.3765 1.39263 16.9081 1.39263 11.3889C1.39263 5.86959 5.86103 1.40119 11.3803 1.40119H23.8628C29.382 1.40119 33.8504 5.86959 33.8504 11.3889C33.8504 16.9081 29.382 21.3765 23.8628 21.3765H11.3803ZM0 11.3803C0 17.6685 5.09209 22.7606 11.3803 22.7606H23.8628C30.1424 22.7606 35.2431 17.6685 35.2431 11.3803C35.2431 5.0921 30.151 1.52588e-05 23.8628 1.52588e-05H11.3803C5.09209 0.00855827 0 5.10065 0 11.3803Z" fill="black"/>
<path d="M34.328 12.0809H0.853516V10.6968H34.328V12.0809Z" fill="black"/>
</svg>
